<svg id="Layer_1" data-name="Layer 1" xmlns="http://www.w3.org/2000/svg" viewBox="0 0 254.99 254.99"><defs><style>.cls-1{fill:#92d4d2;}.cls-2{fill:#383c58;}</style></defs><path class="cls-1" d="M127.49,0A127.5,127.5,0,1,0,255,127.49,127.49,127.49,0,0,0,127.49,0Zm0,214A86.49,86.49,0,1,1,214,127.49,86.48,86.48,0,0,1,127.49,214Z"/><path class="cls-2" d="M127.49,41a86.53,86.53,0,1,0,21,170.46q-6.18-15.21-12.37-30.41a54.93,54.93,0,0,1-8.67.7,54.31,54.31,0,1,1,32.44-10.81.19.19,0,0,1,0,.08h0q6.2,15.27,12.38,30.53A86.53,86.53,0,0,0,127.49,41Z"/></svg>