<?xml version="1.0" standalone="no"?>
<!DOCTYPE svg PUBLIC "-//W3C//DTD SVG 20010904//EN"
 "http://www.w3.org/TR/2001/REC-SVG-20010904/DTD/svg10.dtd">
<svg version="1.0" xmlns="http://www.w3.org/2000/svg"
 width="439.000000pt" height="462.000000pt" viewBox="0 0 439.000000 462.000000"
 preserveAspectRatio="xMidYMid meet">
<metadata>
Created by potrace 1.16, written by Peter Selinger 2001-2019
</metadata>
<g transform="translate(0.000000,462.000000) scale(0.100000,-0.100000)"
fill="#000000" stroke="none">
<path d="M1983 4139 c-854 -100 -1535 -791 -1622 -1648 -36 -344 22 -679 170
-991 269 -564 787 -945 1409 -1036 157 -22 480 -15 624 15 357 74 658 231 914
476 233 223 384 459 481 751 246 739 11 1550 -590 2034 -272 219 -578 349
-926 395 -121 16 -341 18 -460 4z m427 -1089 c268 -76 481 -294 550 -565 27
-107 27 -264 0 -371 -39 -152 -117 -283 -231 -388 l-62 -58 86 -213 c48 -118
87 -218 87 -223 0 -14 -150 -85 -244 -117 -58 -20 -81 -23 -86 -15 -4 7 -45
105 -91 219 l-83 206 -136 0 c-114 0 -147 4 -210 23 -139 44 -225 97 -330 202
-52 52 -110 121 -129 152 -74 127 -119 319 -106 452 35 359 292 645 640 712
93 18 249 11 345 -16z"/>
</g>
</svg>
