<svg id="svg" version="1.1" xmlns="http://www.w3.org/2000/svg" style="display: block;" viewBox="0 0 439 462"><path d="M0 0 C144.87 0 289.74 0 439 0 C439 152.46 439 304.92 439 462 C294.13 462 149.26 462 0 462 C0 309.54 0 157.08 0 0 Z " transform="translate(0,0)" style="fill: #00998E;"/><path d="M0 0 C144.87 0 289.74 0 439 0 C439 152.46 439 304.92 439 462 C294.13 462 149.26 462 0 462 C0 309.54 0 157.08 0 0 Z M79 111 C71.20741127 119.85077975 64.96326243 129.8619536 59 140 C58.64164063 140.60537598 58.28328125 141.21075195 57.9140625 141.83447266 C33.68330851 183.3159749 28.93431587 234.59009057 40.89697266 280.68017578 C48.73143099 309.23330258 62.62313741 335.43150802 83 357 C84.12962233 358.32941948 85.25479312 359.66263718 86.375 361 C109.50426081 387.34312165 143.31753646 404.7635454 177 413 C177.85207031 413.21027832 178.70414063 413.42055664 179.58203125 413.63720703 C226.01528925 424.49743015 277.40545472 415.59317888 317.82421875 390.70703125 C328.63602779 383.82771053 338.7728565 375.88853272 348 367 C348.53334961 366.49243164 349.06669922 365.98486328 349.61621094 365.46191406 C385.01744573 331.6402101 404.46993455 285.08911614 406.125 236.31640625 C406.95297281 184.93034396 387.21887528 137.98249119 352 101 C351.01966797 99.94039062 351.01966797 99.94039062 350.01953125 98.859375 C324.3682848 71.95017829 288.04150222 55.63051907 252 49 C250.09927734 48.63261719 250.09927734 48.63261719 248.16015625 48.2578125 C184.01625784 38.08950722 122.19840782 64.23215734 79 111 Z " transform="translate(0,0)" style="fill: #000000;"/><path d="M0 0 C9.65127498 8.63754394 17.56048177 17.62093918 24.71484375 28.4296875 C25.2665625 29.22375 25.81828125 30.0178125 26.38671875 30.8359375 C42.45384387 55.36853714 47.67456281 89.29548453 42.26367188 117.92358398 C35.2937014 150.52493608 17.85571994 180.75077557 -10.28515625 199.4296875 C-21.27205747 206.24895739 -33.12418709 211.13621556 -45.28515625 215.4296875 C-47.033125 216.0484375 -47.033125 216.0484375 -48.81640625 216.6796875 C-78.07330236 226.33730369 -111.02944283 222.21568881 -138.37915039 208.59130859 C-169.551721 192.11950926 -191.80949513 165.2401767 -202.66015625 131.8046875 C-210.71559914 105.44645541 -209.66104379 75.03321178 -199.28515625 49.4296875 C-199.01606445 48.76259766 -198.74697266 48.09550781 -198.46972656 47.40820312 C-185.39122527 15.81290847 -159.90583303 -8.59681549 -128.45556641 -21.71826172 C-85.27070428 -38.67159904 -35.18490356 -29.86325148 0 0 Z " transform="translate(302.28515625,136.5703125)" style="fill: #08323F;"/><path d="M0 0 C15.03492362 12.36142729 26.91819176 30.17007708 29.43554688 49.78808594 C31.22723215 71.97048263 27.32590088 92.43296553 13.43554688 110.28808594 C3.70477764 121.65347055 3.70477764 121.65347055 -0.56445312 123.78808594 C0.05555252 129.07778756 1.7721275 133.49941386 3.81445312 138.36230469 C4.14597885 139.16795364 4.47750458 139.9736026 4.81907654 140.80366516 C5.87282835 143.36345934 6.93456847 145.91981885 7.99804688 148.47558594 C9.06472851 151.04220603 10.12948764 153.60952924 11.18772888 156.17964172 C11.84485756 157.77546274 12.5068584 159.36928802 13.17420959 160.96086121 C15.43554688 166.450293 15.43554688 166.450293 15.43554688 169.78808594 C-9.11284022 182.78808594 -9.11284022 182.78808594 -17.56445312 182.78808594 C-19.34371001 178.55677625 -21.12181681 174.32498568 -22.89892578 170.09277344 C-23.50181112 168.65742403 -24.1049936 167.2221994 -24.70849609 165.78710938 C-26.41676662 161.72465509 -28.11982957 157.66010703 -29.81323242 153.59143066 C-30.49923248 151.94465153 -31.18887862 150.29939246 -31.87890625 148.65429688 C-32.24435547 147.76774414 -32.60980469 146.88119141 -32.98632812 145.96777344 C-33.29666992 145.21995605 -33.60701172 144.47213867 -33.92675781 143.70166016 C-34.56445312 141.78808594 -34.56445312 141.78808594 -34.56445312 138.78808594 C-35.55445313 139.11808594 -36.54445313 139.44808594 -37.56445312 139.78808594 C-58.61213804 141.6375068 -78.25555333 137.1490776 -95.37695312 124.47558594 C-96.79728375 123.27481023 -98.19176298 122.04304536 -99.56445312 120.78808594 C-100.45648438 119.98757813 -101.34851563 119.18707031 -102.26757812 118.36230469 C-118.05744264 103.45684515 -126.26493365 83.40203606 -126.93945312 61.78808594 C-126.23064916 39.10635898 -116.64076556 19.5294752 -100.56445312 3.78808594 C-73.16889282 -21.89525185 -29.42991868 -22.79808307 0 0 Z " transform="translate(268.564453125,170.2119140625)" style="fill: #000000;"/></svg>